<svg width="36" height="34" viewBox="0 0 36 34" fill="none" xmlns="http://www.w3.org/2000/svg">
<path d="M27.2812 5.35938L26.2656 7.625L24 8.64062L26.2656 9.73438L27.2812 12L28.375 9.73438L30.6406 8.64062L28.375 7.625L27.2812 5.35938ZM17.3594 7.23438C18.6094 7.49479 19.7292 8.01562 20.7188 8.79688C21.7604 9.57812 22.5677 10.5417 23.1406 11.6875C23.7135 12.7812 24 14.0052 24 15.3594V16.4531L14.3906 12.8594H7.75C8.21875 11.401 9 10.1771 10.0938 9.1875C11.2396 8.19792 12.5417 7.54688 14 7.23438V3.64062H11.5V0.359375C11.5 0.359375 11.7344 0.359375 12.2031 0.359375C12.6719 0.359375 13.2708 0.359375 14 0.359375C14.7292 0.359375 15.5104 0.359375 16.3438 0.359375C17.2292 0.359375 18.0365 0.359375 18.7656 0.359375C19.5469 0.359375 20.1719 0.359375 20.6406 0.359375C21.5781 0.359375 22.4635 0.515625 23.2969 0.828125C24.1823 1.08854 24.9635 1.47917 25.6406 2L23.2188 4.42188C22.4375 3.90104 21.5781 3.64062 20.6406 3.64062H17.3594V7.23438ZM0.640625 33.6406V15.3594H7.35938V33.6406H0.640625ZM32.3594 25.3594C33.2448 25.3594 34 25.6979 34.625 26.375C35.3021 27 35.6406 27.7552 35.6406 28.6406L22.3594 33.6406L10.6406 30.3594V15.3594H13.9219L26.0312 19.8125C26.9167 20.1771 27.3594 20.8021 27.3594 21.6875C27.3594 22.2604 27.151 22.7292 26.7344 23.0938C26.3698 23.4583 25.901 23.6406 25.3281 23.6406H20.6406L17.75 22.5469L17.2031 24.1094L20.6406 25.3594H32.3594ZM32.3594 20.3594C31.4219 20.3594 30.6146 20.0469 29.9375 19.4219C29.3125 18.7448 29 17.9375 29 17C29 16.5312 29.1562 15.9323 29.4688 15.2031C29.8333 14.474 30.224 13.7448 30.6406 13.0156C31.1094 12.2344 31.5 11.6094 31.8125 11.1406C32.1771 10.6198 32.3594 10.3594 32.3594 10.3594C32.3594 10.3594 32.5156 10.6198 32.8281 11.1406C33.1927 11.6094 33.5833 12.2344 34 13.0156C34.4167 13.7448 34.7812 14.474 35.0938 15.2031C35.4583 15.9323 35.6406 16.5312 35.6406 17C35.6406 17.9375 35.3021 18.7448 34.625 19.4219C34 20.0469 33.2448 20.3594 32.3594 20.3594Z" fill="#3C2769"/>
</svg>
