<svg width="96" height="25" viewBox="0 0 96 25" fill="none" xmlns="http://www.w3.org/2000/svg">
<path d="M16.5 6.65625H13.5C12.9477 6.65625 12.5 7.10397 12.5 7.65625V10.6562H16.5C16.6137 10.6537 16.7216 10.7067 16.7892 10.7982C16.8568 10.8896 16.8758 11.0083 16.84 11.1163L16.1 13.3162C16.0318 13.5182 15.8431 13.6546 15.63 13.6562H12.5V21.1562C12.5 21.4324 12.2761 21.6562 12 21.6562H9.5C9.22386 21.6562 9 21.4324 9 21.1562V13.6562H7.5C7.22386 13.6562 7 13.4324 7 13.1562V11.1562C7 10.8801 7.22386 10.6562 7.5 10.6562H9V7.65625C9 5.44711 10.7909 3.65625 13 3.65625H16.5C16.7761 3.65625 17 3.88011 17 4.15625V6.15625C17 6.43239 16.7761 6.65625 16.5 6.65625Z" fill="black"/>
<path d="M92.9728 7.37365C92.5084 7.99317 91.947 8.53358 91.3103 8.97401C91.3103 9.13584 91.3103 9.29767 91.3103 9.4685C91.3154 12.4074 90.1415 15.2254 88.0518 17.2908C85.962 19.3562 83.1312 20.4962 80.1941 20.4552C78.496 20.4609 76.8197 20.0732 75.2964 19.3224C75.2143 19.2865 75.1613 19.2053 75.1616 19.1156V19.0167C75.1616 18.8876 75.2662 18.783 75.3953 18.783C77.0644 18.7279 78.674 18.1492 79.9963 17.1287C78.4855 17.0982 77.1262 16.2032 76.5006 14.827C76.469 14.7519 76.4788 14.6656 76.5266 14.5995C76.5743 14.5334 76.653 14.497 76.7343 14.5034C77.1934 14.5495 77.6572 14.5068 78.1002 14.3775C76.4324 14.0313 75.1792 12.6467 74.9999 10.952C74.9935 10.8707 75.0299 10.792 75.096 10.7442C75.1621 10.6965 75.2482 10.6866 75.3234 10.7183C75.7709 10.9158 76.2541 11.0198 76.7432 11.0239C75.2818 10.0647 74.6506 8.2403 75.2066 6.58247C75.2639 6.42138 75.4018 6.30237 75.5695 6.26919C75.7372 6.236 75.91 6.29353 76.0243 6.42064C77.9964 8.5195 80.706 9.77021 83.5819 9.90904C83.5083 9.6151 83.4721 9.31301 83.4741 9.00997C83.501 7.42097 84.4842 6.00546 85.9634 5.42612C87.4425 4.84679 89.1249 5.21828 90.223 6.36669C90.9714 6.2241 91.695 5.9727 92.3707 5.62046C92.4202 5.58956 92.483 5.58956 92.5325 5.62046C92.5634 5.66998 92.5634 5.73277 92.5325 5.78229C92.2052 6.53177 91.6523 7.16037 90.9509 7.58044C91.5651 7.50921 92.1685 7.36432 92.7482 7.14889C92.797 7.11567 92.8611 7.11567 92.9099 7.14889C92.9508 7.16759 92.9814 7.20336 92.9935 7.24667C93.0056 7.28998 92.998 7.33643 92.9728 7.37365Z" fill="black"/>
<path fill-rule="evenodd" clip-rule="evenodd" d="M52 3.65625H44C41.2386 3.65625 39 5.89483 39 8.65625V16.6562C39 19.4177 41.2386 21.6562 44 21.6562H52C54.7614 21.6562 57 19.4177 57 16.6562V8.65625C57 5.89483 54.7614 3.65625 52 3.65625ZM55.25 16.6562C55.2445 18.4488 53.7926 19.9007 52 19.9062H44C42.2074 19.9007 40.7555 18.4488 40.75 16.6562V8.65625C40.7555 6.8636 42.2074 5.41174 44 5.40625H52C53.7926 5.41174 55.2445 6.8636 55.25 8.65625V16.6562ZM52.75 8.90625C53.3023 8.90625 53.75 8.45853 53.75 7.90625C53.75 7.35397 53.3023 6.90625 52.75 6.90625C52.1977 6.90625 51.75 7.35397 51.75 7.90625C51.75 8.45853 52.1977 8.90625 52.75 8.90625ZM48 8.15625C45.5147 8.15625 43.5 10.171 43.5 12.6562C43.5 15.1416 45.5147 17.1562 48 17.1562C50.4853 17.1562 52.5 15.1416 52.5 12.6562C52.5027 11.4619 52.0294 10.3158 51.1849 9.47133C50.3404 8.62684 49.1943 8.15359 48 8.15625ZM45.25 12.6562C45.25 14.175 46.4812 15.4062 48 15.4062C49.5188 15.4062 50.75 14.175 50.75 12.6562C50.75 11.1375 49.5188 9.90625 48 9.90625C46.4812 9.90625 45.25 11.1375 45.25 12.6562Z" fill="black"/>
</svg>
